<svg xmlns="http://www.w3.org/2000/svg" height="209.173" width="216.282"><path d="M201.854 94.088c-35.268-4.4-59.947-1.5-73.413 8.685-5.8 4.382-8.978 9.583-9.453 15.46-.757 9.306 5.318 18.085 8.209 21.693 23.766-30.431 56.98-41.791 74.657-45.838z" fill="#cedd3e"/><path d="M16.494 100.107c14.173.944 25.026 5.634 34.166 9.6 10.354 4.492 17.844 7.733 25.512 3.9 3.945-1.97 7.45-3.853 9.287-4.855-24.251-15.686-52.696-12.515-68.965-8.645zM130.584 141.881c7.029 1.666 26.372 4.908 41.932-5.032 11.722-7.488 19.578-18.438 26.509-28.1a133.674 133.674 0 019.312-12.052c-14.43 2.591-51.802 12.274-77.753 45.184zM116.216 60.434c6.276-1.318 22.076-5.39 27.487-13.869 3.106-4.867 5.678-13.033 8.165-20.93 2.2-6.975 4.321-13.672 6.87-18.578-12.06 5.918-37.443 21.923-42.522 53.377z" fill="#a1af45"/><path d="M84.599 103.653c-2.288-8.045-8.7-21.235-26.388-23.077-17.439-1.819-35.9 9.21-46.2 16.691 15.519-4.167 46.002-9.056 72.588 6.386zM155.388 4.425C127.7 6.054 103.905 21.346 97.959 33.237c-2.284 4.571-2.632 8.934-1.03 12.966 2.9 7.309 11.382 12 15.427 13.877 5.028-31.919 29.739-48.78 43.032-55.655z" fill="#cedd3e"/><g fill="none" stroke="#3e4147" stroke-linecap="round" stroke-linejoin="round" stroke-width="3.87"><path d="M113.894 62.846c-23.309 33.3-4.353 74.977 0 94.825 3.22 14.676 0 49.4 0 49.4M127.273 142.996s-23.142-24.271 0-41.768 72.813-9.595 86.924-7.338c-11.289 8.467-20.32 31.609-40.641 44.591s-46.283 4.515-46.283 4.515zM214.196 93.888s-69.525 5.655-99.391 70"/><path d="M113.894 62.846S86.07 52.696 96.229 32.372s46.849-31.049 68.272-29.92c-7.878 6.209-11.829 33.659-19.166 45.155s-31.441 15.239-31.441 15.239zM164.501 2.452s-45.13 15.24-50.607 60.394M87.763 109.694s-2.257-28.221-29.35-31.043-55.879 23.706-55.879 23.706c39.51-4.382 56.442 22 74.5 12.982 5.86-2.925 10.729-5.645 10.729-5.645zM2.533 102.357s64.6-27.114 102.57 22"/></g></svg>
